# xmcd
#
# Track frame offsets:
#	183
#	13358
#	28988
#	44113
#	56203
#	68218
#	79523
#	93533
#	107273
#	116980
#	128488
#	140948
#	157608
#	167670
#	180423
#	193488
#	204858
#	215913
#	227398
#	240795
#
# Disc length: 3414 seconds
#
# Revision: 1
# Processed by: cddbd v1.5.1PL0 Copyright (c) Steve Scherf et al.
# Submitted via: audiograbber 1.83.01
#
DISCID=1a0d5414
DTITLE=Peter Zinsli - s'Beschte vom Beschte
DYEAR=1900
DGENRE=
TTITLE0=Ruhn, abträtä
TTITLE1=Nello's Autofahrt in Uster
TTITLE2=Martheli-Shottish
TTITLE3=Miar Göhnd na lang nid hei
TTITLE4=In dr Monterosahüttä
TTITLE5=De tiffig sepp
TTITLE6=Uf der Nachtwach
TTITLE7=Zogä am Bogä
TTITLE8=Abschied
TTITLE9=De seppel
TTITLE10=D'Akrobatik-Mia vo Tschiertscha
TTITLE11=Furmias aint il chül
TTITLE12=Im Calanda-Gärtli z'Chur
TTITLE13=Am Mikrofon, Roger Thieriet
TTITLE14=3 Tag Scharfa
TTITLE15=üebe und rasiere dehei
TTITLE16=Niklaus schwinget
TTITLE17=Altwyber-Summer
TTITLE18=Bündner-Meitli
TTITLE19=Dr. wentalaschieber
EXTD=
EXTT0=
EXTT1=
EXTT2=
EXTT3=
EXTT4=
EXTT5=
EXTT6=
EXTT7=
EXTT8=
EXTT9=
EXTT10=
EXTT11=
EXTT12=
EXTT13=
EXTT14=
EXTT15=
EXTT16=
EXTT17=
EXTT18=
EXTT19=
PLAYORDER=
